<svg xmlns="http://www.w3.org/2000/svg"><defs>
<symbol id="calendar" viewBox="0 0 24 24"><path d="M8 2v4m8-4v4M3 10h18M5 4h14a2 2 0 0 1 2 2v14H3V6a2 2 0 0 1 2-2Z"/></symbol>
<symbol id="check" viewBox="0 0 24 24"><path d="M9 11l3 3L22 4M21 12v8H3V4h12"/></symbol>
<symbol id="train" viewBox="0 0 24 24"><path d="M6 17l-2 4m14-4 2 4M4 15V5c0-3 16-3 16 0v10a2 2 0 0 1-2 2H6a2 2 0 0 1-2-2Zm0-6h16M8 13h.01M16 13h.01"/></symbol>
<symbol id="pin" viewBox="0 0 24 24"><path d="M20 10c0 5-8 12-8 12S4 15 4 10a8 8 0 1 1 16 0Z"/><circle cx="12" cy="10" r="2"/></symbol>
<symbol id="map" viewBox="0 0 24 24"><path d="m3 6 6-3 6 3 6-3v15l-6 3-6-3-6 3V6Zm6-3v15m6-12v15"/></symbol>
<symbol id="languages" viewBox="0 0 24 24"><path d="M2 5h12M8 2v3m-3 4c2 4 5 6 9 7m-1-7c-2 4-5 6-9 7m12-2 3-7 3 7m-5-2h4"/></symbol>
<symbol id="shield" viewBox="0 0 24 24"><path d="M12 22s8-4 8-10V5l-8-3-8 3v7c0 6 8 10 8 10Zm0-13v4m0 3h.01"/></symbol>
<symbol id="wallet" viewBox="0 0 24 24"><path d="M3 6h16a2 2 0 0 1 2 2v12H3V6Zm0 0V4h14v2m0 6h4m-4 0v4h4"/></symbol>
<symbol id="search" viewBox="0 0 24 24"><circle cx="11" cy="11" r="7"/><path d="m20 20-4-4"/></symbol>
<symbol id="route" viewBox="0 0 24 24"><circle cx="6" cy="18" r="2"/><circle cx="18" cy="6" r="2"/><path d="M7.5 17 11 13.5c1-1 1-2.5 0-3.5L9.5 8.5c-1-1-1-2.5 0-3.5L12 2.5M12 21.5l2.5-2.5c1-1 1-2.5 0-3.5L13 14c-1-1-1-2.5 0-3.5L16.5 7"/></symbol>
<symbol id="mountain-rail" viewBox="0 0 24 24"><path d="m2 18 5.5-9 3.5 5 2.5-4 4.5 8M3 21h18M5 18h14M8 18v3m4-3v3m4-3v3"/></symbol>
<symbol id="city-rail" viewBox="0 0 24 24"><path d="M3 20h18M5 20V9h4v11m1 0V4h5v16m1 0v-8h3v8M4 8h6m1-5h3M3 15h6m7 1h3"/><path d="M2 22h20"/></symbol>
<symbol id="landscape" viewBox="0 0 24 24"><circle cx="17" cy="7" r="2"/><path d="M3 20 9 10l4 6 2-3 6 7M3 4h18v16H3z"/></symbol>
<symbol id="spark" viewBox="0 0 24 24"><path d="m12 2 1.7 6.3L20 10l-6.3 1.7L12 18l-1.7-6.3L4 10l6.3-1.7L12 2Zm7 13 .7 2.3L22 18l-2.3.7L19 21l-.7-2.3L16 18l2.3-.7L19 15Z"/></symbol>
</defs></svg>
